<svg xmlns="http://www.w3.org/2000/svg" xmlns:xlink="http://www.w3.org/1999/xlink" width="500" zoomAndPan="magnify" viewBox="0 0 375 374.999991" height="500" preserveAspectRatio="xMidYMid meet" version="1.0"><defs><filter x="0%" y="0%" width="100%" height="100%" id="df3a82ef67"><feColorMatrix values="0 0 0 0 1 0 0 0 0 1 0 0 0 0 1 0 0 0 1 0" color-interpolation-filters="sRGB"/></filter><g/><mask id="7329cab34c"><g filter="url(#df3a82ef67)"><rect x="-37.5" width="450" fill="#000000" y="-37.499999" height="449.999989" fill-opacity="0.84"/></g></mask><clipPath id="419e5dbe3f"><rect x="0" width="83" y="0" height="192"/></clipPath><mask id="6ced6ad8b0"><g filter="url(#df3a82ef67)"><rect x="-37.5" width="450" fill="#000000" y="-37.499999" height="449.999989" fill-opacity="0.84"/></g></mask><clipPath id="bb9dfa1ad3"><rect x="0" width="35" y="0" height="191"/></clipPath><mask id="173cbecb1a"><g filter="url(#df3a82ef67)"><rect x="-37.5" width="450" fill="#000000" y="-37.499999" height="449.999989" fill-opacity="0.84"/></g></mask><clipPath id="e9b563f89b"><rect x="0" width="82" y="0" height="192"/></clipPath><mask id="f351effe11"><g filter="url(#df3a82ef67)"><rect x="-37.5" width="450" fill="#000000" y="-37.499999" height="449.999989" fill-opacity="0.84"/></g></mask><clipPath id="8e5d07da4f"><rect x="0" width="84" y="0" height="192"/></clipPath><mask id="b7971f8864"><g filter="url(#df3a82ef67)"><rect x="-37.5" width="450" fill="#000000" y="-37.499999" height="449.999989" fill-opacity="0.84"/></g></mask><clipPath id="e0dca13f5b"><rect x="0" width="82" y="0" height="192"/></clipPath></defs><g mask="url(#7329cab34c)"><g transform="matrix(1, 0, 0, 1, 55, 92)"><g clip-path="url(#419e5dbe3f)"><g fill="#0d2436" fill-opacity="1"><g transform="translate(0.709137, 153.404284)"><g><path d="M 39.0625 -45.207031 C 38.90625 -45.523438 38.75 -45.679688 38.75 -45.996094 C 38.277344 -47.726562 37.804688 -49.460938 37.332031 -51.191406 C 35.441406 -59.699219 33.550781 -68.363281 31.503906 -76.867188 C 29.769531 -83.796875 28.195312 -90.730469 26.933594 -97.816406 C 26.304688 -101.125 25.359375 -104.433594 24.730469 -107.742188 C 24.414062 -109.472656 23.3125 -110.417969 21.738281 -110.890625 C 18.746094 -111.835938 15.59375 -111.835938 12.445312 -111.363281 C 11.339844 -111.207031 10.082031 -111.046875 8.820312 -111.046875 C 7.402344 -111.046875 6.144531 -110.890625 4.726562 -110.417969 C 3.621094 -110.101562 3.148438 -109.472656 3.148438 -108.371094 C 3.308594 -106.324219 3.148438 -104.433594 3.464844 -102.542969 C 3.78125 -99.863281 4.253906 -97.1875 4.882812 -94.667969 C 6.144531 -90.097656 7.5625 -85.53125 8.664062 -80.960938 C 10.394531 -73.875 12.128906 -66.785156 13.703125 -59.699219 C 15.277344 -52.925781 16.539062 -45.996094 17.957031 -39.0625 C 19.375 -31.660156 21.738281 -24.574219 23.628906 -17.167969 C 25.046875 -12.285156 26.621094 -7.5625 28.039062 -2.835938 C 28.351562 -2.046875 28.667969 -1.261719 29.140625 -0.472656 C 29.769531 0.472656 30.558594 0.945312 31.660156 0.945312 C 36.699219 0.628906 41.742188 0.316406 46.78125 0.945312 C 47.726562 0.945312 48.355469 0.628906 48.671875 0 C 49.617188 -1.734375 50.5625 -3.464844 51.035156 -5.199219 C 52.609375 -10.867188 54.34375 -16.539062 55.761719 -22.210938 C 57.335938 -29.457031 59.382812 -36.542969 61.429688 -43.632812 C 63.320312 -50.246094 65.210938 -56.707031 66.628906 -63.480469 C 67.574219 -67.257812 68.519531 -70.882812 69.148438 -74.820312 C 70.09375 -80.175781 70.882812 -85.847656 72.300781 -91.203125 C 72.457031 -92.304688 72.613281 -93.40625 72.773438 -94.507812 C 73.085938 -96.242188 73.402344 -98.132812 74.03125 -99.863281 C 74.664062 -101.753906 75.136719 -103.960938 75.605469 -106.007812 C 75.921875 -106.953125 76.078125 -107.898438 76.238281 -108.84375 C 76.238281 -109.789062 75.921875 -110.417969 74.976562 -110.890625 C 74.191406 -111.207031 73.402344 -111.519531 72.613281 -111.519531 C 69.464844 -111.835938 66.15625 -111.992188 63.007812 -111.992188 C 60.800781 -111.992188 58.4375 -111.679688 56.234375 -111.363281 C 55.445312 -111.046875 54.816406 -110.734375 54.5 -109.945312 C 54.027344 -108.84375 53.554688 -107.898438 53.398438 -106.953125 C 52.769531 -104.433594 51.980469 -101.914062 51.507812 -99.234375 C 51.035156 -95.925781 50.246094 -92.617188 49.617188 -89.3125 C 48.671875 -85.375 47.882812 -81.433594 46.941406 -77.496094 C 45.996094 -73.085938 45.050781 -68.675781 44.105469 -64.421875 C 42.527344 -58.28125 40.953125 -52.136719 39.378906 -45.996094 C 39.378906 -45.835938 39.222656 -45.679688 39.0625 -45.207031 Z M 39.0625 -45.207031 "/></g></g></g></g></g></g><g mask="url(#6ced6ad8b0)"><g transform="matrix(1, 0, 0, 1, 111, 91)"><g clip-path="url(#bb9dfa1ad3)"><g fill="#0d2436" fill-opacity="1"><g transform="translate(1.502083, 153.535733)"><g><path d="M 26.148438 -98.292969 C 25.992188 -98.292969 25.992188 -98.292969 25.992188 -98.292969 C 25.992188 -102.074219 25.992188 -106.011719 25.992188 -109.792969 C 25.992188 -111.679688 25.203125 -112.3125 23.3125 -112.152344 C 22.054688 -111.996094 20.792969 -111.996094 19.691406 -111.996094 C 17.484375 -111.996094 15.121094 -111.996094 12.917969 -111.996094 C 11.5 -111.996094 10.238281 -111.839844 8.820312 -111.679688 C 7.5625 -111.523438 6.929688 -110.894531 6.773438 -109.632812 C 6.617188 -107.742188 6.457031 -105.851562 6.457031 -103.964844 C 6.457031 -100.96875 6.617188 -97.976562 6.617188 -94.984375 C 6.617188 -90.890625 6.617188 -86.636719 6.617188 -82.382812 C 6.617188 -80.648438 6.773438 -78.917969 6.773438 -77.183594 C 6.773438 -68.519531 6.929688 -59.859375 6.773438 -51.195312 C 6.773438 -44.894531 6.773438 -38.433594 6.457031 -31.976562 C 6.300781 -25.519531 6.300781 -18.902344 6.457031 -12.285156 C 6.617188 -9.136719 6.457031 -5.828125 6.457031 -2.679688 C 6.457031 -1.734375 6.300781 -0.945312 6.300781 0 C 6.300781 1.261719 6.773438 1.574219 8.035156 1.734375 C 8.347656 1.734375 8.664062 1.734375 8.980469 1.734375 C 13.703125 1.734375 18.429688 1.734375 23.15625 1.574219 C 23.941406 1.574219 24.886719 1.101562 25.203125 0 C 25.203125 -0.316406 25.359375 -0.789062 25.359375 -1.261719 C 25.519531 -6.457031 25.675781 -11.8125 25.832031 -17.167969 C 25.832031 -18.429688 25.992188 -19.847656 25.992188 -21.109375 C 26.148438 -23.46875 26.304688 -25.832031 26.304688 -28.195312 C 26.464844 -34.023438 26.464844 -39.851562 26.464844 -45.523438 C 26.464844 -47.570312 26.304688 -49.617188 26.304688 -51.667969 C 26.148438 -54.5 25.992188 -57.496094 25.992188 -60.332031 C 25.992188 -63.164062 26.148438 -66 26.148438 -68.679688 C 26.148438 -73.71875 25.992188 -78.601562 25.992188 -83.484375 C 25.992188 -84.589844 26.148438 -85.691406 26.148438 -86.949219 C 26.148438 -90.730469 26.148438 -94.511719 26.148438 -98.292969 Z M 26.148438 -98.292969 "/></g></g></g></g></g></g><g mask="url(#173cbecb1a)"><g transform="matrix(1, 0, 0, 1, 134, 92)"><g clip-path="url(#e9b563f89b)"><g fill="#0d2436" fill-opacity="1"><g transform="translate(1.311677, 154.585095)"><g><path d="M 43.003906 1.734375 C 44.578125 1.734375 47.097656 1.574219 49.460938 1.417969 C 51.351562 1.261719 53.242188 0.945312 54.972656 0.789062 C 58.441406 0.472656 61.273438 -0.789062 63.636719 -3.308594 C 68.679688 -8.507812 71.355469 -14.808594 71.984375 -21.894531 C 72.300781 -24.257812 72.617188 -26.621094 72.773438 -28.984375 C 73.089844 -34.8125 72.929688 -40.640625 71.042969 -46.3125 C 69.78125 -50.089844 67.734375 -53.398438 65.054688 -56.234375 C 64.582031 -56.863281 64.109375 -57.179688 63.480469 -57.652344 C 62.535156 -58.441406 62.378906 -58.441406 63.324219 -59.226562 C 63.480469 -59.382812 63.796875 -59.699219 64.109375 -59.855469 C 66.628906 -61.117188 68.207031 -63.324219 69.464844 -65.84375 C 70.726562 -68.992188 71.671875 -72.300781 71.828125 -75.765625 C 71.984375 -77.65625 71.984375 -79.546875 72.144531 -81.59375 C 72.300781 -86.164062 71.355469 -90.730469 69.9375 -95.140625 C 68.679688 -98.292969 67.261719 -101.441406 65.054688 -104.277344 C 63.636719 -106.324219 62.21875 -108.371094 59.855469 -109.789062 C 57.96875 -111.050781 55.761719 -111.839844 53.398438 -112.3125 C 52.296875 -112.46875 51.195312 -112.625 50.25 -112.785156 C 47.097656 -113.570312 43.789062 -113.414062 40.640625 -113.414062 C 37.332031 -113.414062 34.179688 -113.257812 30.875 -113.097656 C 29.929688 -112.941406 29.140625 -112.785156 28.351562 -112.785156 C 27.410156 -112.625 26.621094 -112.46875 25.832031 -112.46875 C 23.46875 -112.625 20.949219 -112.625 18.585938 -112.785156 C 17.640625 -112.785156 16.695312 -112.941406 15.75 -112.941406 C 13.074219 -112.785156 10.554688 -112.46875 8.191406 -110.894531 C 7.089844 -110.261719 6.617188 -109.316406 6.617188 -108.058594 C 6.773438 -107.429688 6.773438 -106.957031 6.617188 -106.324219 C 6.300781 -102.070312 6.457031 -97.820312 6.773438 -93.722656 C 7.089844 -91.832031 7.089844 -90.101562 6.929688 -88.210938 C 6.773438 -85.53125 6.617188 -82.699219 6.773438 -79.863281 C 6.929688 -72.929688 7.246094 -65.84375 7.402344 -58.910156 C 7.5625 -48.671875 7.71875 -38.433594 7.71875 -28.195312 C 7.71875 -22.367188 7.5625 -16.539062 7.246094 -10.554688 C 7.089844 -7.71875 7.5625 -4.726562 7.71875 -1.890625 C 7.875 -0.15625 8.980469 0.945312 10.867188 0.945312 C 13.074219 0.945312 15.28125 1.101562 17.484375 0.789062 C 20.476562 0.472656 23.46875 0.789062 26.464844 1.101562 C 31.660156 1.574219 36.859375 1.574219 43.003906 1.734375 Z M 31.976562 -37.332031 C 31.820312 -40.011719 31.820312 -42.84375 31.660156 -45.523438 C 31.660156 -46.78125 31.660156 -46.78125 32.921875 -46.941406 C 35.597656 -46.941406 38.433594 -47.097656 41.269531 -47.097656 C 43.003906 -47.097656 44.734375 -46.78125 46.46875 -46.3125 C 48.199219 -45.679688 49.304688 -44.421875 50.089844 -43.003906 C 52.609375 -38.75 53.398438 -34.179688 52.925781 -29.457031 C 52.769531 -26.777344 51.195312 -24.574219 48.671875 -22.996094 C 45.050781 -20.636719 41.113281 -19.847656 37.015625 -19.691406 C 35.914062 -19.53125 34.8125 -19.53125 33.550781 -19.53125 C 32.765625 -19.691406 32.605469 -19.691406 32.605469 -20.636719 C 32.449219 -26.148438 32.132812 -31.660156 31.976562 -37.175781 C 31.976562 -37.175781 31.976562 -37.175781 31.976562 -37.332031 Z M 30.714844 -78.917969 C 30.558594 -81.910156 30.558594 -84.746094 30.558594 -87.738281 C 30.558594 -88.367188 30.558594 -88.683594 31.347656 -88.839844 C 33.550781 -89 35.757812 -89.3125 38.121094 -89.472656 C 40.167969 -89.628906 42.214844 -89.472656 44.261719 -88.367188 C 45.523438 -87.738281 46.625 -86.792969 47.253906 -85.53125 C 49.144531 -81.910156 50.089844 -78.128906 50.089844 -74.191406 C 50.089844 -73.402344 49.933594 -72.617188 49.460938 -72.144531 C 48.199219 -70.570312 46.625 -69.308594 44.578125 -69.152344 C 42.214844 -68.992188 39.695312 -68.835938 37.332031 -68.679688 C 35.757812 -68.519531 34.179688 -68.363281 32.605469 -68.046875 C 31.03125 -67.890625 31.03125 -68.046875 30.875 -69.625 C 30.875 -72.457031 30.875 -75.453125 30.714844 -78.285156 C 30.714844 -78.445312 30.714844 -78.601562 30.714844 -78.917969 Z M 30.714844 -78.917969 "/></g></g></g></g></g></g><g mask="url(#f351effe11)"><g transform="matrix(1, 0, 0, 1, 235, 91)"><g clip-path="url(#8e5d07da4f)"><g fill="#0d2436" fill-opacity="1"><g transform="translate(1.526027, 154.824431)"><g><path d="M 40.640625 1.890625 C 45.367188 1.890625 49.933594 1.417969 54.34375 -0.789062 C 55.289062 -1.417969 56.234375 -1.890625 57.179688 -2.363281 C 60.328125 -4.566406 63.636719 -6.617188 66 -9.765625 C 68.207031 -12.757812 70.410156 -15.59375 71.828125 -19.058594 C 74.820312 -25.832031 75.609375 -33.078125 74.191406 -40.480469 C 73.875 -42.371094 73.089844 -44.421875 72.457031 -46.3125 C 71.984375 -47.414062 71.355469 -48.359375 70.882812 -49.460938 C 69.78125 -51.667969 68.046875 -53.398438 66.15625 -54.816406 C 65.371094 -55.289062 64.898438 -56.078125 64.109375 -56.707031 C 63.164062 -57.496094 62.0625 -58.28125 61.117188 -59.226562 C 59.226562 -60.800781 57.179688 -61.746094 54.972656 -62.851562 C 52.769531 -64.109375 50.40625 -65.054688 48.199219 -66.15625 C 47.570312 -66.472656 46.78125 -66.628906 46.152344 -67.101562 C 43.789062 -68.519531 41.113281 -69.9375 38.75 -71.511719 C 37.175781 -72.457031 35.757812 -73.5625 34.652344 -74.980469 C 33.550781 -76.238281 32.921875 -77.65625 32.765625 -79.230469 C 32.605469 -80.492188 32.765625 -81.910156 33.078125 -83.171875 C 33.550781 -84.585938 34.652344 -85.847656 35.914062 -86.792969 C 37.175781 -87.894531 38.59375 -88.683594 40.167969 -88.683594 C 43.476562 -89 46.941406 -89 50.25 -88.054688 C 52.140625 -87.582031 53.714844 -86.792969 54.972656 -85.375 C 55.917969 -84.429688 57.179688 -83.640625 58.28125 -82.699219 C 58.597656 -82.539062 58.910156 -82.226562 59.226562 -82.226562 C 60.800781 -82.226562 62.21875 -82.382812 63.324219 -83.484375 C 64.425781 -84.585938 65.527344 -85.691406 66.472656 -86.792969 C 68.046875 -88.839844 69.625 -90.730469 71.199219 -92.777344 C 72.300781 -94.195312 72.457031 -95.613281 71.671875 -97.1875 C 70.726562 -98.765625 69.464844 -100.183594 68.207031 -101.601562 C 66.472656 -103.960938 64.269531 -105.539062 61.90625 -107.113281 C 59.070312 -109.316406 55.917969 -110.578125 52.609375 -111.523438 C 49.933594 -112.3125 47.253906 -112.625 44.578125 -112.625 C 39.851562 -112.46875 35.285156 -111.996094 31.03125 -109.789062 C 30.085938 -109.316406 29.140625 -108.84375 28.195312 -108.214844 C 24.886719 -106.167969 21.738281 -103.960938 19.21875 -100.8125 C 17.011719 -97.820312 14.808594 -94.984375 13.390625 -91.519531 C 10.394531 -84.746094 9.609375 -77.5 11.027344 -70.253906 C 11.5 -67.734375 12.445312 -65.054688 13.546875 -62.691406 C 14.492188 -60.644531 15.59375 -58.753906 17.328125 -57.179688 C 18.902344 -55.917969 20.320312 -54.5 21.894531 -53.242188 C 23.785156 -51.824219 25.675781 -50.5625 27.566406 -49.144531 C 28.511719 -48.515625 29.457031 -48.042969 30.558594 -47.570312 C 32.132812 -46.78125 33.867188 -45.679688 35.597656 -45.050781 C 38.433594 -44.105469 40.796875 -42.53125 43.316406 -41.113281 C 45.050781 -40.167969 46.625 -39.066406 48.199219 -37.960938 C 50.089844 -36.703125 51.351562 -35.125 52.140625 -33.078125 C 53.242188 -29.769531 52.453125 -26.777344 50.089844 -24.574219 C 48.359375 -22.839844 46.152344 -22.050781 43.789062 -21.265625 C 41.898438 -20.792969 40.167969 -20.792969 38.277344 -21.421875 C 36.230469 -22.050781 34.339844 -22.839844 32.292969 -23.628906 C 31.503906 -23.941406 30.875 -24.414062 30.085938 -24.886719 C 27.722656 -26.148438 26.148438 -28.351562 24.257812 -30.242188 C 23.628906 -31.1875 22.996094 -32.132812 22.210938 -33.078125 C 21.738281 -33.550781 21.265625 -34.339844 20.320312 -34.023438 C 19.375 -33.867188 18.585938 -33.550781 17.800781 -32.765625 C 16.695312 -31.660156 15.59375 -30.558594 14.335938 -29.613281 C 11.8125 -27.878906 9.609375 -25.519531 7.246094 -23.628906 C 6.457031 -22.996094 6.144531 -22.050781 6.457031 -21.109375 C 6.929688 -20.003906 7.246094 -18.746094 7.875 -17.800781 C 9.921875 -14.335938 12.128906 -11.027344 15.121094 -8.347656 C 16.066406 -7.402344 17.011719 -6.617188 18.113281 -5.828125 C 18.902344 -5.199219 20.003906 -4.566406 20.949219 -3.9375 C 23.785156 -1.890625 26.9375 -0.472656 30.402344 0.472656 C 33.710938 1.261719 37.015625 2.046875 40.640625 1.890625 Z M 40.640625 1.890625 "/></g></g></g></g></g></g><g mask="url(#b7971f8864)"><g transform="matrix(1, 0, 0, 1, 194, 91)"><g clip-path="url(#e0dca13f5b)"><g fill="#0d2436" fill-opacity="1"><g transform="translate(1.499438, 155.014319)"><g><path d="M 7.71875 -53.082031 C 7.5625 -49.460938 7.402344 -43.476562 7.246094 -37.488281 C 7.089844 -30.875 6.929688 -24.414062 6.773438 -17.800781 C 6.617188 -13.230469 6.617188 -8.507812 6.457031 -3.78125 C 6.300781 -2.046875 7.246094 -0.789062 8.035156 0.472656 C 8.191406 0.789062 8.664062 1.101562 9.136719 1.261719 C 10.710938 1.574219 12.285156 2.207031 13.703125 2.207031 C 16.855469 2.363281 20.003906 2.363281 22.996094 2.207031 C 25.992188 2.046875 28.984375 1.734375 31.976562 1.574219 C 36.070312 1.574219 40.480469 1.574219 44.578125 1.417969 C 47.414062 1.261719 50.089844 0.945312 52.769531 0.945312 C 58.125 0.789062 63.324219 0.789062 68.679688 0.628906 C 69.464844 0.628906 70.253906 0.628906 70.726562 0 C 71.828125 -1.261719 72.617188 -2.519531 72.617188 -4.253906 C 72.773438 -7.875 72.144531 -11.5 71.984375 -15.121094 C 71.984375 -16.382812 71.984375 -17.957031 70.570312 -18.902344 C 70.570312 -18.902344 70.570312 -19.058594 70.410156 -19.21875 C 69.625 -20.636719 68.046875 -21.421875 66.472656 -21.109375 C 65.84375 -21.109375 65.210938 -20.949219 64.582031 -21.109375 C 62.691406 -21.109375 60.644531 -21.265625 58.753906 -21.265625 C 55.761719 -21.109375 52.769531 -20.792969 49.777344 -20.792969 C 44.421875 -20.636719 39.066406 -20.636719 33.867188 -20.636719 C 32.449219 -20.476562 32.449219 -20.636719 32.449219 -21.894531 C 32.449219 -25.203125 32.449219 -28.511719 32.449219 -31.660156 C 32.292969 -37.488281 32.292969 -43.160156 32.292969 -48.832031 C 32.292969 -50.878906 32.449219 -50.878906 34.496094 -50.878906 C 38.121094 -51.195312 41.742188 -51.351562 45.367188 -51.667969 C 48.671875 -51.824219 51.824219 -52.296875 55.132812 -52.609375 C 56.550781 -52.609375 58.125 -52.609375 59.699219 -52.609375 C 60.960938 -52.769531 61.746094 -53.398438 61.746094 -54.816406 C 61.746094 -58.441406 61.746094 -61.90625 61.589844 -65.371094 C 61.589844 -66.945312 61.433594 -68.519531 61.273438 -70.097656 C 61.117188 -71.199219 61.117188 -71.199219 60.015625 -71.199219 C 58.910156 -71.199219 57.96875 -71.199219 56.863281 -71.199219 C 52.609375 -71.199219 48.199219 -71.355469 43.789062 -71.199219 C 40.324219 -71.199219 36.859375 -71.042969 33.238281 -71.042969 C 32.132812 -71.042969 31.976562 -71.042969 31.976562 -72.300781 C 32.132812 -76.710938 32.292969 -81.121094 32.292969 -85.691406 C 32.449219 -86.636719 32.449219 -86.636719 33.394531 -86.792969 C 37.015625 -87.265625 40.796875 -87.421875 44.421875 -87.582031 C 48.832031 -87.582031 53.082031 -87.582031 57.496094 -87.738281 C 60.644531 -87.894531 63.953125 -88.054688 67.101562 -88.210938 C 68.363281 -88.367188 69.625 -88.527344 70.410156 -89.628906 C 71.042969 -90.574219 71.511719 -91.675781 71.355469 -92.777344 C 71.199219 -97.660156 71.042969 -102.542969 70.882812 -107.429688 C 70.726562 -110.105469 69.308594 -111.996094 66.472656 -112.152344 C 66 -112.152344 65.371094 -112.152344 65.054688 -111.996094 C 63.480469 -111.679688 62.0625 -111.839844 60.644531 -111.839844 C 57.652344 -111.839844 54.660156 -111.996094 51.824219 -111.996094 C 49.933594 -111.996094 48.199219 -112.152344 46.46875 -112.152344 C 39.851562 -112.152344 33.078125 -111.996094 26.464844 -111.996094 C 25.992188 -111.996094 25.519531 -111.839844 24.886719 -111.839844 C 22.050781 -111.839844 19.058594 -111.839844 16.066406 -111.839844 C 14.648438 -111.839844 13.074219 -111.839844 11.65625 -111.839844 C 9.449219 -111.523438 8.347656 -110.421875 8.347656 -108.214844 C 8.191406 -107.585938 8.347656 -107.113281 8.347656 -106.640625 C 8.347656 -104.433594 8.507812 -102.230469 8.507812 -100.023438 C 8.191406 -85.21875 8.035156 -70.410156 7.71875 -53.082031 Z M 7.71875 -53.082031 "/></g></g></g></g></g></g></svg>